<svg xmlns="http://www.w3.org/2000/svg" xmlns:xlink="http://www.w3.org/1999/xlink" viewBox="0 0 128 128"><defs><style>.cls-1{isolation:isolate;}.cls-2,.cls-6{mix-blend-mode:multiply;}.cls-3{fill:url(#linear-gradient);}.cls-4{fill:url(#linear-gradient-2);}.cls-5{fill:url(#linear-gradient-3);}.cls-6{opacity:0.24;}.cls-7{fill:none;stroke:#000;stroke-linecap:round;stroke-linejoin:round;}.cls-8{fill:url(#linear-gradient-4);}</style><linearGradient id="linear-gradient" x1="23" y1="64" x2="105" y2="64" gradientUnits="userSpaceOnUse"><stop offset="0" stop-color="#2b53cf"/><stop offset="1" stop-color="#9e74fe"/></linearGradient><linearGradient id="linear-gradient-2" x1="33" y1="64" x2="95" y2="64" gradientUnits="userSpaceOnUse"><stop offset="0" stop-color="#1c2a33"/><stop offset="1" stop-color="#435661"/></linearGradient><linearGradient id="linear-gradient-3" x1="35" y1="64" x2="93" y2="64" gradientUnits="userSpaceOnUse"><stop offset="0" stop-color="#d7dce2"/><stop offset="1" stop-color="#f0f3f7"/></linearGradient><linearGradient id="linear-gradient-4" x1="35" y1="101" x2="93" y2="101" gradientUnits="userSpaceOnUse"><stop offset="0" stop-color="#74e6f3"/><stop offset="1" stop-color="#466be3"/></linearGradient></defs><title>floppy-disk</title><g class="cls-1"><g id="icons" class="cls-2"><path class="cls-3" d="M104.12,30.12l-6.24-6.24A3,3,0,0,0,95.76,23H26a3,3,0,0,0-3,3v76a3,3,0,0,0,3,3h76a3,3,0,0,0,3-3V32.24A3,3,0,0,0,104.12,30.12ZM31,100.5a.5.5,0,0,1-.5.5h-3a.5.5,0,0,1-.5-.5v-3a.5.5,0,0,1,.5-.5h3a.5.5,0,0,1,.5.5Zm70,0a.5.5,0,0,1-.5.5h-3a.5.5,0,0,1-.5-.5v-3a.5.5,0,0,1,.5-.5h3a.5.5,0,0,1,.5.5Z"/><path class="cls-4" d="M95,61v42a2,2,0,0,1-2,2H35a2,2,0,0,1-2-2V61a2,2,0,0,1,2-2H93A2,2,0,0,1,95,61ZM35,51H85a2,2,0,0,0,2-2V25a2,2,0,0,0-2-2H35a2,2,0,0,0-2,2V49A2,2,0,0,0,35,51Z"/><path class="cls-5" d="M93,61v42H35V61ZM45,49V27a2,2,0,0,1,2-2H85a2,2,0,0,1,2,2V49a2,2,0,0,1-2,2H47A2,2,0,0,1,45,49Zm24,0H79V29H69Z"/><g class="cls-6"><line class="cls-7" x1="41.5" y1="83.5" x2="86.5" y2="83.5"/><line class="cls-7" x1="41.5" y1="91.5" x2="86.5" y2="91.5"/><line class="cls-7" x1="41.5" y1="75.5" x2="86.5" y2="75.5"/></g><rect class="cls-8" x="35" y="99" width="58" height="4"/></g></g></svg>